<svg xmlns="http://www.w3.org/2000/svg" width="49.877" height="33.618" viewBox="0 0 49.877 33.618">
  <g id="chalet" transform="translate(0.002 -83.454)">
    <g id="Group_9" data-name="Group 9" transform="translate(-0.002 83.454)">
      <path id="Path_1" data-name="Path 1" d="M49.872,115.551V103.417c0-.048,0-.1-.007-.145,0-.021-.006-.041-.009-.061s-.007-.053-.012-.08-.011-.047-.017-.071-.011-.046-.018-.068-.016-.046-.024-.068-.015-.045-.024-.067-.019-.042-.029-.063-.02-.045-.032-.067-.023-.039-.035-.059-.025-.043-.039-.064-.031-.043-.047-.064-.025-.034-.038-.051q-.046-.056-.1-.107L34.865,87.8a1.46,1.46,0,0,0-2.065,0c-.016.016-.03.033-.044.049s-.034.029-.05.045l-5.848,5.848L17.1,83.992a1.481,1.481,0,0,0-.1-.111,1.474,1.474,0,0,0-2.076,0q-.053.053-.1.111l-14.4,14.4a1.443,1.443,0,0,0-.1.107c-.013.016-.025.033-.038.05s-.033.042-.048.065-.025.042-.038.062-.025.04-.036.06-.021.043-.031.065-.021.042-.03.064-.016.043-.024.064S.068,98.977.061,99s-.011.043-.017.065-.013.049-.018.073-.008.05-.011.075-.007.044-.01.066Q0,99.351,0,99.42s0,0,0,0v16.187a1.46,1.46,0,0,0,1.46,1.46H48.414a1.46,1.46,0,0,0,1.46-1.46C49.875,115.591,49.873,115.571,49.872,115.551ZM33.833,90.9l1.634,1.634-1.616,1.616-1.634-1.634ZM15.964,86.985l6.041,6.041-1.259,1.259-3.3-3.3a1.625,1.625,0,0,0-2.176-.084l-.807.807L12.851,90.1ZM19.1,114.151H12v-8.022l3.549-3.767,3.549,3.767Zm27.849,0H22.022v-5.1l1.032,1.035a1.46,1.46,0,1,0,2.068-2.063c-.045-.045-8.2-8.477-8.249-8.515a1.816,1.816,0,0,0-2.643,0L6.009,108.02a1.46,1.46,0,0,0,2.068,2.063l1.006-1.008v5.076H2.919V100.029l7.867-7.867L13.421,94.8a1.459,1.459,0,0,0,1.969.087,1.486,1.486,0,0,0,.151-.13l.772-.772,3.4,3.4a1.46,1.46,0,0,0,2.065,0c.014-.014.026-.029.039-.044s.03-.025.044-.039l2.209-2.209,3.816,3.816a1.46,1.46,0,0,0,2.065-2.065l-1.029-1.029,1.229-1.229,2.667,2.667a1.46,1.46,0,0,0,2.065,0l0,0h0L37.532,94.6l9.419,9.419v10.13Z" transform="translate(0.002 -83.454)" fill="#e1a500"/>
    </g>
  </g>
</svg>
