<svg xmlns="http://www.w3.org/2000/svg" width="17" height="17" viewBox="0 0 17 17">
  <g id="whatsapp_4_" data-name="whatsapp(4)" transform="translate(0 -0.001)">
    <path id="Path_33" data-name="Path 33" d="M4.112,15.788A8.438,8.438,0,0,0,8.47,16.995,8.544,8.544,0,0,0,17,8.5,8.5,8.5,0,1,0,1.213,12.889L0,17ZM1,8.5a7.465,7.465,0,1,1,3.451,6.33l-.191-.122-2.789.823L2.3,12.739l-.122-.191A7.5,7.5,0,0,1,1,8.5Zm0,0" transform="translate(0 0)" fill="#fff"/>
    <path id="Path_34" data-name="Path 34" d="M121.243,96.52a7.507,7.507,0,0,0,6.02,6.02c.989.188,2.441.217,3.15-.493l.4-.4a1.057,1.057,0,0,0,0-1.495l-1.581-1.581a1.057,1.057,0,0,0-1.495,0l-.4.4a.7.7,0,0,1-.941,0l-1.577-1.644-.007-.007a.621.621,0,0,1,0-.877l.4-.4a1.056,1.056,0,0,0,0-1.495l-1.581-1.581a1.058,1.058,0,0,0-1.495,0l-.4.4h0a3.686,3.686,0,0,0-.493,3.15Zm1.2-2.446c.415-.406.393-.413.439-.413a.061.061,0,0,1,.043.018c1.666,1.675,1.6,1.577,1.6,1.625a.06.06,0,0,1-.018.043l-.4.4a1.615,1.615,0,0,0,0,2.282l1.578,1.645.007.007a1.7,1.7,0,0,0,2.352,0l.4-.4a.061.061,0,0,1,.087,0c1.666,1.675,1.6,1.577,1.6,1.625a.06.06,0,0,1-.018.043l-.4.4a2.946,2.946,0,0,1-2.26.219,6.511,6.511,0,0,1-5.229-5.229,2.945,2.945,0,0,1,.219-2.26Zm0,0" transform="translate(-117.105 -89.588)" fill="#fff"/>
  </g>
</svg>
